<svg width="173" height="181" viewBox="0 0 173 181" fill="none" xmlns="http://www.w3.org/2000/svg">
<path d="M77.9761 103.127C90.7459 111.741 100.54 122.114 106.062 131.9C111.601 141.716 112.771 150.793 108.61 156.961C104.449 163.13 95.5957 165.446 84.4197 163.987C73.2769 162.533 59.9903 157.338 47.2205 148.725C34.4507 140.111 24.6565 129.738 19.1341 119.951C13.5952 110.136 12.426 101.059 16.5867 94.8908C20.7474 88.7222 29.6008 86.4063 40.7768 87.8648C51.9196 89.3189 65.2063 94.5141 77.9761 103.127Z" stroke="#44FFA1"/>
<path d="M89.9761 85.1274C102.746 93.7408 112.54 104.114 118.062 113.9C123.601 123.716 124.771 132.793 120.61 138.961C116.449 145.13 107.596 147.446 96.4197 145.987C85.2769 144.533 71.9903 139.338 59.2205 130.725C46.4507 122.111 36.6565 111.738 31.1341 101.951C25.5952 92.1356 24.426 83.0593 28.5867 76.8908C32.7474 70.7222 41.6008 68.4063 52.7768 69.8648C63.9196 71.3189 77.2063 76.5141 89.9761 85.1274Z" stroke="#44FFA1"/>
<path opacity="0.75" d="M100.976 68.1274C113.746 76.7408 123.54 87.1138 129.062 96.9005C134.601 106.716 135.771 115.793 131.61 121.961C127.449 128.13 118.596 130.446 107.42 128.987C96.2769 127.533 82.9903 122.338 70.2205 113.725C57.4507 105.111 47.6565 94.7382 42.1341 84.9514C36.5952 75.1356 35.426 66.0593 39.5867 59.8908C43.7474 53.7222 52.6008 51.4063 63.7768 52.8648C74.9196 54.3189 88.2063 59.5141 100.976 68.1274Z" stroke="#44FFA1"/>
<path opacity="0.5" d="M112.976 50.1274C125.746 58.7408 135.54 69.1138 141.062 78.9005C146.601 88.7163 147.771 97.7927 143.61 103.961C139.449 110.13 130.596 112.446 119.42 110.987C108.277 109.533 94.9903 104.338 82.2205 95.7245C69.4507 87.1112 59.6565 76.7382 54.1341 66.9514C48.5952 57.1356 47.426 48.0593 51.5867 41.8908C55.7474 35.7222 64.6008 33.4063 75.7768 34.8648C86.9196 36.3189 100.206 41.5141 112.976 50.1274Z" stroke="#44FFA1"/>
<path opacity="0.25" d="M125.976 32.1274C138.746 40.7408 148.54 51.1138 154.062 60.9005C159.601 70.7163 160.771 79.7927 156.61 85.9612C152.449 92.1297 143.596 94.4456 132.42 92.9872C121.277 91.5331 107.99 86.3379 95.2205 77.7245C82.4507 69.1112 72.6565 58.7382 67.1341 48.9514C61.5952 39.1356 60.426 30.0593 64.5867 23.8908C68.7474 17.7222 77.6008 15.4063 88.7768 16.8648C99.9196 18.3189 113.206 23.5141 125.976 32.1274Z" stroke="#44FFA1"/>
</svg>
