<svg width="340" height="317" viewBox="0 0 340 317" fill="none" xmlns="http://www.w3.org/2000/svg">
<path d="M194.03 171.765C207.873 145.731 225.72 125.015 243.363 112.56C261.031 100.087 278.356 95.9833 291.267 102.848C304.178 109.713 310.464 126.371 310.003 147.993C309.543 169.584 302.349 195.964 288.506 221.999C274.663 248.033 256.816 268.749 239.174 281.204C221.505 293.678 204.181 297.781 191.269 290.916C178.358 284.051 172.072 267.394 172.533 245.771C172.994 224.18 180.188 197.8 194.03 171.765Z" stroke="#44FFA1"/>
<path d="M158.03 152.765C171.873 126.731 189.72 106.015 207.363 93.5602C225.031 81.0867 242.356 76.9833 255.267 83.8482C268.178 90.7132 274.464 107.371 274.003 128.993C273.543 150.584 266.349 176.964 252.506 202.999C238.663 229.033 220.816 249.749 203.174 262.204C185.505 274.678 168.181 278.781 155.269 271.916C142.358 265.051 136.072 248.394 136.533 226.771C136.994 205.18 144.188 178.8 158.03 152.765Z" stroke="#44FFA1"/>
<path opacity="0.75" d="M123.913 134.235C137.757 108.199 155.506 87.4302 172.99 74.89C190.502 62.3295 207.604 58.1152 220.267 64.8482C232.93 71.5812 238.999 88.1156 238.379 109.658C237.759 131.165 230.466 157.494 216.623 183.529C202.78 209.565 185.03 230.334 167.546 242.874C150.034 255.435 132.932 259.649 120.269 252.916C107.607 246.183 101.537 229.649 102.158 208.106C102.777 186.599 110.07 160.27 123.913 134.235Z" stroke="#44FFA1"/>
<path opacity="0.5" d="M87.0305 113.765C100.873 87.731 118.72 67.0153 136.363 54.5602C154.031 42.0867 171.356 37.9833 184.267 44.8482C197.178 51.7132 203.464 68.3705 203.003 89.9935C202.543 111.584 195.349 137.964 181.506 163.999C167.663 190.033 149.816 210.749 132.174 223.204C114.505 235.678 97.1805 239.781 84.2694 232.916C71.3583 226.051 65.0724 209.394 65.5334 187.771C65.9936 166.18 73.1877 139.8 87.0305 113.765Z" stroke="#44FFA1"/>
<path opacity="0.25" d="M50.9134 95.2349C64.7568 69.1993 82.5061 48.4302 99.9901 35.89C117.502 23.3295 134.604 19.1152 147.267 25.8482C159.93 32.5812 165.999 49.1156 165.379 70.6578C164.759 92.165 157.466 118.494 143.623 144.529C129.78 170.565 112.03 191.334 94.5463 203.874C77.0339 216.435 59.9324 220.649 47.2694 213.916C34.6065 207.183 28.5373 190.649 29.1576 169.106C29.777 147.599 37.0701 121.27 50.9134 95.2349Z" stroke="#44FFA1"/>
</svg>
